<svg width="64" height="64" viewBox="0 0 64 64" fill="none" xmlns="http://www.w3.org/2000/svg">
  <rect x="3" y="3" width="58" height="58" rx="14" fill="#FFD54F" stroke="#21201D" stroke-width="4"/>
  <path d="M13 47V17H22.4L27 31.8L31.6 17H41V47H33.6V31.1L28.8 46.2H25.2L20.4 31.1V47H13Z" fill="#21201D"/>
  <path d="M44 47V17H52.6C57.9 17 61 19.8 61 24C61 27 59.3 29.1 56.8 30C60 30.8 62 33.2 62 36.5C62 42.3 57.6 47 50.9 47H44ZM51.5 28C53.6 28 54.8 27 54.8 25.2C54.8 23.4 53.6 22.4 51.5 22.4H50.9V28H51.5ZM52 41.6C54.6 41.6 56 40.3 56 38.1C56 35.9 54.6 34.5 52 34.5H50.9V41.6H52Z" fill="#21201D"/>
</svg>
